<?xml version="1.0" standalone="no"?>
<!DOCTYPE svg PUBLIC "-//W3C//DTD SVG 20010904//EN"
 "http://www.w3.org/TR/2001/REC-SVG-20010904/DTD/svg10.dtd">
<svg version="1.0" xmlns="http://www.w3.org/2000/svg"
 width="513.000000pt" height="513.000000pt" viewBox="0 0 513.000000 513.000000"
 preserveAspectRatio="xMidYMid meet">
<metadata>
Created by potrace 1.11, written by Peter Selinger 2001-2013
</metadata>
<g transform="translate(0.000000,513.000000) scale(0.100000,-0.100000)"
fill="#000000" stroke="none">
<path d="M2529 3866 c-2 -2 -24 -7 -49 -10 -58 -7 -98 -14 -136 -27 -17 -5
-40 -11 -50 -13 -65 -13 -243 -101 -334 -164 -77 -54 -208 -178 -233 -221
l-18 -30 103 49 c222 106 407 151 638 155 287 5 439 -37 825 -227 300 -148
462 -192 710 -192 192 -1 251 7 384 50 115 38 228 96 317 165 55 43 168 158
161 165 -2 2 -30 -9 -63 -25 -303 -146 -669 -163 -1010 -47 -131 45 -147 52
-374 166 -205 103 -316 147 -440 174 -41 9 -86 19 -100 22 -30 7 -326 15 -331
10z"/>
<path d="M2339 3510 c-20 -5 -47 -11 -60 -14 -50 -9 -174 -57 -237 -91 -444
-244 -622 -800 -401 -1253 193 -395 624 -606 1059 -519 216 44 434 186 570
372 279 380 234 916 -103 1242 -122 119 -267 200 -444 249 -66 18 -325 28
-384 14z"/>
<path d="M789 1938 c-174 -31 -335 -98 -459 -191 -62 -46 -154 -137 -170 -168
-10 -18 -5 -17 48 10 92 47 254 98 372 117 59 10 319 12 369 2 25 -5 60 -11
76 -14 121 -20 344 -99 464 -164 204 -109 392 -193 464 -207 20 -4 27 -10 22
-21 -4 -11 -2 -12 8 -4 9 8 25 8 52 1 38 -10 65 -15 125 -24 14 -2 25 -4 25
-5 0 -1 32 -3 71 -4 38 -2 76 -6 82 -10 7 -4 12 -2 12 4 0 6 5 8 10 5 6 -4 8
-12 4 -18 -3 -7 1 -4 9 6 10 12 16 14 19 6 2 -7 12 -13 21 -15 9 -1 15 2 11 7
-3 5 -10 7 -15 4 -5 -4 -9 -1 -9 4 0 13 2 13 35 1 14 -5 24 -6 21 -1 -3 5 4 9
17 9 12 0 32 2 45 5 12 3 22 2 22 -4 0 -5 5 -9 11 -9 5 0 8 4 5 9 -3 4 29 16
72 26 42 10 83 22 89 28 7 5 22 7 33 4 11 -3 18 -2 16 2 -3 4 10 13 27 20 48
20 181 85 187 91 3 3 34 27 70 52 36 25 86 66 112 90 48 44 128 138 128 149 0
4 -33 -11 -72 -31 -307 -161 -659 -213 -976 -145 -132 27 -263 77 -457 173
-254 126 -380 173 -556 207 -123 24 -311 25 -440 3z"/>
<path d="M2830 1329 c0 -5 5 -7 10 -4 6 3 10 8 10 11 0 2 -4 4 -10 4 -5 0 -10
-5 -10 -11z"/>
<path d="M2759 1298 c15 -21 31 -23 31 -6 0 6 -3 8 -7 5 -3 -4 -13 -1 -22 6
-14 11 -14 10 -2 -5z"/>
<path d="M2835 1299 c-4 -6 -5 -12 -2 -15 2 -3 7 2 10 11 7 17 1 20 -8 4z"/>
<path d="M2696 1292 c-3 -5 1 -9 9 -9 8 0 12 4 9 9 -3 4 -7 8 -9 8 -2 0 -6 -4
-9 -8z"/>
<path d="M1966 1268 c3 -5 10 -6 15 -3 13 9 11 12 -6 12 -8 0 -12 -4 -9 -9z"/>
<path d="M2598 1273 c7 -3 16 -2 19 1 4 3 -2 6 -13 5 -11 0 -14 -3 -6 -6z"/>
<path d="M2724 1269 c-3 -6 0 -17 8 -25 13 -13 15 -13 15 0 0 8 -5 12 -10 9
-6 -4 -8 0 -4 10 7 19 2 23 -9 6z"/>
<path d="M2874 1266 c1 -8 5 -18 8 -22 4 -3 5 1 4 10 -1 8 -5 18 -8 22 -4 3
-5 -1 -4 -10z"/>
<path d="M2130 1266 c0 -2 8 -10 18 -17 15 -13 16 -12 3 4 -13 16 -21 21 -21
13z"/>
<path d="M2514 1250 c0 -13 4 -16 10 -10 7 7 7 13 0 20 -6 6 -10 3 -10 -10z"/>
<path d="M2573 1263 c4 -6 2 -13 -5 -15 -8 -3 -6 -6 4 -10 17 -7 19 15 3 29
-4 4 -5 3 -2 -4z"/>
<path d="M2630 1259 c0 -5 -6 -7 -12 -3 -7 4 -10 3 -5 -1 13 -15 46 -13 40 2
-6 16 -23 17 -23 2z"/>
<path d="M2680 1261 c0 -6 4 -13 10 -16 6 -3 7 1 4 9 -7 18 -14 21 -14 7z"/>
<path d="M2259 1243 c-12 -16 -12 -17 2 -6 9 7 20 9 24 5 5 -4 5 -1 1 6 -9 16
-11 15 -27 -5z"/>
<path d="M2491 1244 c0 -11 3 -14 6 -6 3 7 2 16 -1 19 -3 4 -6 -2 -5 -13z"/>
<path d="M3050 1256 c0 -2 7 -7 16 -10 8 -3 12 -2 9 4 -6 10 -25 14 -25 6z"/>
<path d="M2055 1230 c-3 -5 -1 -10 4 -10 6 0 11 5 11 10 0 6 -2 10 -4 10 -3 0
-8 -4 -11 -10z"/>
<path d="M2440 1230 c-9 -6 -10 -10 -3 -10 6 0 15 5 18 10 8 12 4 12 -15 0z"/>
<path d="M2700 1230 c-9 -6 -10 -10 -3 -10 6 0 15 5 18 10 8 12 4 12 -15 0z"/>
<path d="M2950 1236 c0 -2 7 -7 16 -10 8 -3 12 -2 9 4 -6 10 -25 14 -25 6z"/>
<path d="M2109 1213 c-13 -16 -12 -17 4 -4 16 13 21 21 13 21 -2 0 -10 -8 -17
-17z"/>
<path d="M2575 1211 c-3 -5 -2 -12 3 -15 5 -3 9 1 9 9 0 17 -3 19 -12 6z"/>
</g>
</svg>
